<mxfile host="app.diagrams.net" modified="2024-05-05T16:25:32.735Z" agent="Mozilla/5.0 (Windows NT 10.0; Win64; x64) AppleWebKit/537.36 (KHTML, like Gecko) Chrome/124.0.0.0 Safari/537.36" etag="8tLyv3lIILh3OPG80b17" version="24.3.0" type="github">
  <diagram name="Page-1" id="zmRgylz1be5_Snv3-g14">
    <mxGraphModel dx="2577" dy="870" grid="1" gridSize="10" guides="1" tooltips="1" connect="1" arrows="1" fold="1" page="1" pageScale="1" pageWidth="827" pageHeight="1169" math="0" shadow="0">
      <root>
        <mxCell id="0" />
        <mxCell id="1" parent="0" />
        <mxCell id="VLwc3c0ygytjn2desOQL-1" value="&lt;font style=&quot;font-size: 18px;&quot;&gt;Open App/Website&lt;/font&gt;" style="ellipse;whiteSpace=wrap;html=1;labelBackgroundColor=none;fillColor=#A8DADC;strokeColor=#457B9D;fontColor=#1D3557;rounded=0;" vertex="1" parent="1">
          <mxGeometry x="340" width="120" height="50" as="geometry" />
        </mxCell>
        <mxCell id="VLwc3c0ygytjn2desOQL-2" value="" style="endArrow=classic;html=1;rounded=0;labelBackgroundColor=none;strokeColor=#457B9D;fontColor=default;" edge="1" parent="1" source="VLwc3c0ygytjn2desOQL-3">
          <mxGeometry width="50" height="50" relative="1" as="geometry">
            <mxPoint x="399.58000000000004" y="50" as="sourcePoint" />
            <mxPoint x="399.29" y="120" as="targetPoint" />
          </mxGeometry>
        </mxCell>
        <mxCell id="VLwc3c0ygytjn2desOQL-14" value="" style="edgeStyle=orthogonalEdgeStyle;rounded=0;orthogonalLoop=1;jettySize=auto;html=1;labelBackgroundColor=none;strokeColor=#457B9D;fontColor=default;" edge="1" parent="1" source="VLwc3c0ygytjn2desOQL-3" target="VLwc3c0ygytjn2desOQL-4">
          <mxGeometry relative="1" as="geometry" />
        </mxCell>
        <mxCell id="VLwc3c0ygytjn2desOQL-15" value="" style="edgeStyle=orthogonalEdgeStyle;rounded=0;orthogonalLoop=1;jettySize=auto;html=1;labelBackgroundColor=none;strokeColor=#457B9D;fontColor=default;" edge="1" parent="1" source="VLwc3c0ygytjn2desOQL-4" target="VLwc3c0ygytjn2desOQL-5">
          <mxGeometry relative="1" as="geometry" />
        </mxCell>
        <mxCell id="VLwc3c0ygytjn2desOQL-4" value="&lt;font style=&quot;font-size: 18px;&quot;&gt;Create Channel&lt;/font&gt;" style="rounded=0;whiteSpace=wrap;html=1;labelBackgroundColor=none;fillColor=#A8DADC;strokeColor=#457B9D;fontColor=#1D3557;" vertex="1" parent="1">
          <mxGeometry x="340" y="190" width="120" height="60" as="geometry" />
        </mxCell>
        <mxCell id="VLwc3c0ygytjn2desOQL-16" value="" style="edgeStyle=orthogonalEdgeStyle;rounded=0;orthogonalLoop=1;jettySize=auto;html=1;labelBackgroundColor=none;strokeColor=#457B9D;fontColor=default;" edge="1" parent="1" source="VLwc3c0ygytjn2desOQL-5" target="VLwc3c0ygytjn2desOQL-6">
          <mxGeometry relative="1" as="geometry" />
        </mxCell>
        <mxCell id="VLwc3c0ygytjn2desOQL-5" value="&lt;font style=&quot;font-size: 18px;&quot;&gt;Upload Content&lt;/font&gt;" style="rounded=0;whiteSpace=wrap;html=1;labelBackgroundColor=none;fillColor=#A8DADC;strokeColor=#457B9D;fontColor=#1D3557;" vertex="1" parent="1">
          <mxGeometry x="340" y="290" width="120" height="60" as="geometry" />
        </mxCell>
        <mxCell id="VLwc3c0ygytjn2desOQL-17" value="" style="edgeStyle=orthogonalEdgeStyle;rounded=0;orthogonalLoop=1;jettySize=auto;html=1;labelBackgroundColor=none;strokeColor=#457B9D;fontColor=default;" edge="1" parent="1" source="VLwc3c0ygytjn2desOQL-6" target="VLwc3c0ygytjn2desOQL-7">
          <mxGeometry relative="1" as="geometry" />
        </mxCell>
        <mxCell id="VLwc3c0ygytjn2desOQL-6" value="&lt;font style=&quot;font-size: 18px;&quot;&gt;Purchase Credits&lt;/font&gt;" style="rounded=0;whiteSpace=wrap;html=1;labelBackgroundColor=none;fillColor=#A8DADC;strokeColor=#457B9D;fontColor=#1D3557;" vertex="1" parent="1">
          <mxGeometry x="340" y="395" width="120" height="60" as="geometry" />
        </mxCell>
        <mxCell id="VLwc3c0ygytjn2desOQL-26" value="" style="edgeStyle=orthogonalEdgeStyle;rounded=0;orthogonalLoop=1;jettySize=auto;html=1;labelBackgroundColor=none;strokeColor=#457B9D;fontColor=default;" edge="1" parent="1" source="VLwc3c0ygytjn2desOQL-7" target="VLwc3c0ygytjn2desOQL-20">
          <mxGeometry relative="1" as="geometry" />
        </mxCell>
        <mxCell id="VLwc3c0ygytjn2desOQL-7" value="&lt;font style=&quot;font-size: 18px;&quot;&gt;Submit Content&lt;/font&gt;" style="rounded=0;whiteSpace=wrap;html=1;labelBackgroundColor=none;fillColor=#A8DADC;strokeColor=#457B9D;fontColor=#1D3557;" vertex="1" parent="1">
          <mxGeometry x="340" y="500" width="120" height="60" as="geometry" />
        </mxCell>
        <mxCell id="VLwc3c0ygytjn2desOQL-29" value="" style="edgeStyle=orthogonalEdgeStyle;rounded=0;orthogonalLoop=1;jettySize=auto;html=1;labelBackgroundColor=none;strokeColor=#457B9D;fontColor=default;" edge="1" parent="1" source="VLwc3c0ygytjn2desOQL-11" target="VLwc3c0ygytjn2desOQL-12">
          <mxGeometry relative="1" as="geometry" />
        </mxCell>
        <mxCell id="VLwc3c0ygytjn2desOQL-11" value="&lt;font style=&quot;font-size: 18px;&quot;&gt;Publish Approved Content&lt;/font&gt;" style="rounded=0;whiteSpace=wrap;html=1;labelBackgroundColor=none;fillColor=#A8DADC;strokeColor=#457B9D;fontColor=#1D3557;" vertex="1" parent="1">
          <mxGeometry x="340" y="769" width="120" height="60" as="geometry" />
        </mxCell>
        <mxCell id="VLwc3c0ygytjn2desOQL-30" value="" style="edgeStyle=orthogonalEdgeStyle;rounded=0;orthogonalLoop=1;jettySize=auto;html=1;labelBackgroundColor=none;strokeColor=#457B9D;fontColor=default;" edge="1" parent="1" source="VLwc3c0ygytjn2desOQL-12" target="VLwc3c0ygytjn2desOQL-13">
          <mxGeometry relative="1" as="geometry" />
        </mxCell>
        <mxCell id="VLwc3c0ygytjn2desOQL-12" value="&lt;font style=&quot;font-size: 18px;&quot;&gt;Revenue Generated&lt;/font&gt;" style="rounded=0;whiteSpace=wrap;html=1;labelBackgroundColor=none;fillColor=#A8DADC;strokeColor=#457B9D;fontColor=#1D3557;" vertex="1" parent="1">
          <mxGeometry x="340" y="860" width="120" height="60" as="geometry" />
        </mxCell>
        <mxCell id="VLwc3c0ygytjn2desOQL-39" value="" style="edgeStyle=orthogonalEdgeStyle;rounded=0;orthogonalLoop=1;jettySize=auto;html=1;labelBackgroundColor=none;strokeColor=#457B9D;fontColor=default;" edge="1" parent="1" source="VLwc3c0ygytjn2desOQL-13" target="VLwc3c0ygytjn2desOQL-38">
          <mxGeometry relative="1" as="geometry" />
        </mxCell>
        <mxCell id="VLwc3c0ygytjn2desOQL-13" value="&lt;font style=&quot;font-size: 18px;&quot;&gt;Share Revenue&lt;/font&gt;" style="rounded=0;whiteSpace=wrap;html=1;labelBackgroundColor=none;fillColor=#A8DADC;strokeColor=#457B9D;fontColor=#1D3557;" vertex="1" parent="1">
          <mxGeometry x="340" y="970" width="120" height="60" as="geometry" />
        </mxCell>
        <mxCell id="VLwc3c0ygytjn2desOQL-18" value="" style="strokeWidth=2;html=1;shape=mxgraph.flowchart.annotation_2;align=left;labelPosition=right;pointerEvents=1;labelBackgroundColor=none;fillColor=#A8DADC;strokeColor=#457B9D;fontColor=#1D3557;rounded=0;" vertex="1" parent="1">
          <mxGeometry x="260" y="70" width="50" height="500" as="geometry" />
        </mxCell>
        <mxCell id="VLwc3c0ygytjn2desOQL-27" value="" style="edgeStyle=orthogonalEdgeStyle;rounded=0;orthogonalLoop=1;jettySize=auto;html=1;labelBackgroundColor=none;strokeColor=#457B9D;fontColor=default;" edge="1" parent="1" source="VLwc3c0ygytjn2desOQL-19" target="VLwc3c0ygytjn2desOQL-11">
          <mxGeometry relative="1" as="geometry" />
        </mxCell>
        <mxCell id="VLwc3c0ygytjn2desOQL-42" value="" style="edgeStyle=orthogonalEdgeStyle;rounded=0;orthogonalLoop=1;jettySize=auto;html=1;labelBackgroundColor=none;strokeColor=#457B9D;fontColor=default;" edge="1" parent="1" source="VLwc3c0ygytjn2desOQL-19" target="VLwc3c0ygytjn2desOQL-40">
          <mxGeometry relative="1" as="geometry" />
        </mxCell>
        <mxCell id="VLwc3c0ygytjn2desOQL-19" value="&lt;font style=&quot;font-size: 18px;&quot;&gt;Review Approved Content&lt;/font&gt;" style="rhombus;whiteSpace=wrap;html=1;labelBackgroundColor=none;fillColor=#A8DADC;strokeColor=#457B9D;fontColor=#1D3557;rounded=0;" vertex="1" parent="1">
          <mxGeometry x="91.25" y="735" width="122.5" height="130" as="geometry" />
        </mxCell>
        <mxCell id="VLwc3c0ygytjn2desOQL-22" value="" style="edgeStyle=orthogonalEdgeStyle;rounded=0;orthogonalLoop=1;jettySize=auto;html=1;labelBackgroundColor=none;strokeColor=#457B9D;fontColor=default;" edge="1" parent="1" source="VLwc3c0ygytjn2desOQL-20" target="VLwc3c0ygytjn2desOQL-21">
          <mxGeometry relative="1" as="geometry" />
        </mxCell>
        <mxCell id="VLwc3c0ygytjn2desOQL-37" value="" style="edgeStyle=orthogonalEdgeStyle;rounded=0;orthogonalLoop=1;jettySize=auto;html=1;labelBackgroundColor=none;strokeColor=#457B9D;fontColor=default;" edge="1" parent="1" source="VLwc3c0ygytjn2desOQL-20" target="VLwc3c0ygytjn2desOQL-33">
          <mxGeometry relative="1" as="geometry" />
        </mxCell>
        <mxCell id="VLwc3c0ygytjn2desOQL-20" value="&lt;font style=&quot;font-size: 18px;&quot;&gt;Review&amp;nbsp;&lt;/font&gt;&lt;div&gt;&lt;font style=&quot;font-size: 18px;&quot;&gt;Submission&lt;/font&gt;&lt;/div&gt;" style="rhombus;whiteSpace=wrap;html=1;labelBackgroundColor=none;fillColor=#A8DADC;strokeColor=#457B9D;fontColor=#1D3557;rounded=0;" vertex="1" parent="1">
          <mxGeometry x="315" y="593" width="170" height="149" as="geometry" />
        </mxCell>
        <mxCell id="VLwc3c0ygytjn2desOQL-25" value="" style="edgeStyle=orthogonalEdgeStyle;rounded=0;orthogonalLoop=1;jettySize=auto;html=1;labelBackgroundColor=none;strokeColor=#457B9D;fontColor=default;" edge="1" parent="1" source="VLwc3c0ygytjn2desOQL-21" target="VLwc3c0ygytjn2desOQL-19">
          <mxGeometry relative="1" as="geometry" />
        </mxCell>
        <mxCell id="VLwc3c0ygytjn2desOQL-21" value="&lt;font style=&quot;font-size: 18px;&quot;&gt;Forward Approved Content&lt;/font&gt;" style="rounded=0;whiteSpace=wrap;html=1;labelBackgroundColor=none;fillColor=#A8DADC;strokeColor=#457B9D;fontColor=#1D3557;" vertex="1" parent="1">
          <mxGeometry x="70" y="637" width="165" height="61" as="geometry" />
        </mxCell>
        <mxCell id="VLwc3c0ygytjn2desOQL-28" style="edgeStyle=orthogonalEdgeStyle;rounded=0;orthogonalLoop=1;jettySize=auto;html=1;exitX=0.5;exitY=1;exitDx=0;exitDy=0;labelBackgroundColor=none;strokeColor=#457B9D;fontColor=default;" edge="1" parent="1" source="VLwc3c0ygytjn2desOQL-13" target="VLwc3c0ygytjn2desOQL-13">
          <mxGeometry relative="1" as="geometry" />
        </mxCell>
        <mxCell id="VLwc3c0ygytjn2desOQL-47" style="edgeStyle=orthogonalEdgeStyle;rounded=0;orthogonalLoop=1;jettySize=auto;html=1;exitX=0.5;exitY=1;exitDx=0;exitDy=0;labelBackgroundColor=none;strokeColor=#457B9D;fontColor=default;" edge="1" parent="1">
          <mxGeometry relative="1" as="geometry">
            <mxPoint x="589.9985714285716" y="1099.9999999999998" as="targetPoint" />
            <mxPoint x="678.0700000000005" y="703" as="sourcePoint" />
            <Array as="points">
              <mxPoint x="677.57" y="902" />
              <mxPoint x="589.57" y="902" />
            </Array>
          </mxGeometry>
        </mxCell>
        <mxCell id="VLwc3c0ygytjn2desOQL-33" value="&lt;font style=&quot;font-size: 18px;&quot;&gt;15% credits deducted&lt;/font&gt;&lt;div&gt;&lt;font size=&quot;3&quot;&gt;85% credits returned&lt;/font&gt;&lt;/div&gt;" style="rounded=0;whiteSpace=wrap;html=1;labelBackgroundColor=none;fillColor=#A8DADC;strokeColor=#457B9D;fontColor=#1D3557;" vertex="1" parent="1">
          <mxGeometry x="640" y="632" width="179" height="71" as="geometry" />
        </mxCell>
        <mxCell id="VLwc3c0ygytjn2desOQL-34" value="&lt;font style=&quot;font-size: 18px;&quot;&gt;Approved&lt;/font&gt;" style="text;html=1;align=center;verticalAlign=middle;resizable=0;points=[];autosize=1;strokeColor=none;fillColor=none;labelBackgroundColor=none;fontColor=#1D3557;rounded=0;" vertex="1" parent="1">
          <mxGeometry x="233" y="637" width="100" height="40" as="geometry" />
        </mxCell>
        <mxCell id="VLwc3c0ygytjn2desOQL-35" value="&lt;font style=&quot;font-size: 18px;&quot;&gt;Not Approved&lt;/font&gt;" style="text;html=1;align=center;verticalAlign=middle;resizable=0;points=[];autosize=1;strokeColor=none;fillColor=none;labelBackgroundColor=none;fontColor=#1D3557;rounded=0;" vertex="1" parent="1">
          <mxGeometry x="488" y="632" width="130" height="40" as="geometry" />
        </mxCell>
        <mxCell id="VLwc3c0ygytjn2desOQL-38" value="&lt;font style=&quot;font-size: 18px;&quot;&gt;END&lt;/font&gt;" style="ellipse;whiteSpace=wrap;html=1;labelBackgroundColor=none;fillColor=#A8DADC;strokeColor=#457B9D;fontColor=#1D3557;rounded=0;" vertex="1" parent="1">
          <mxGeometry x="350" y="1080" width="100" height="40" as="geometry" />
        </mxCell>
        <mxCell id="VLwc3c0ygytjn2desOQL-43" style="edgeStyle=orthogonalEdgeStyle;rounded=0;orthogonalLoop=1;jettySize=auto;html=1;exitX=0.5;exitY=1;exitDx=0;exitDy=0;labelBackgroundColor=none;strokeColor=#457B9D;fontColor=default;" edge="1" parent="1" source="VLwc3c0ygytjn2desOQL-40">
          <mxGeometry relative="1" as="geometry">
            <mxPoint x="254" y="1100" as="targetPoint" />
            <Array as="points">
              <mxPoint x="152" y="1100" />
            </Array>
          </mxGeometry>
        </mxCell>
        <mxCell id="VLwc3c0ygytjn2desOQL-40" value="&lt;font style=&quot;font-size: 18px;&quot;&gt;15% credits deducted&lt;/font&gt;&lt;div&gt;&lt;font size=&quot;3&quot;&gt;85% credits returned&lt;/font&gt;&lt;/div&gt;" style="rounded=0;whiteSpace=wrap;html=1;labelBackgroundColor=none;fillColor=#A8DADC;strokeColor=#457B9D;fontColor=#1D3557;" vertex="1" parent="1">
          <mxGeometry x="66.5" y="930" width="170" height="60" as="geometry" />
        </mxCell>
        <mxCell id="VLwc3c0ygytjn2desOQL-41" value="&lt;font style=&quot;font-size: 18px;&quot;&gt;Approved&lt;/font&gt;" style="text;html=1;align=center;verticalAlign=middle;resizable=0;points=[];autosize=1;strokeColor=none;fillColor=none;labelBackgroundColor=none;fontColor=#1D3557;rounded=0;" vertex="1" parent="1">
          <mxGeometry x="218" y="754" width="100" height="40" as="geometry" />
        </mxCell>
        <mxCell id="VLwc3c0ygytjn2desOQL-46" value="" style="endArrow=classic;html=1;rounded=0;entryX=0;entryY=0.5;entryDx=0;entryDy=0;labelBackgroundColor=none;strokeColor=#457B9D;fontColor=default;" edge="1" parent="1" target="VLwc3c0ygytjn2desOQL-38">
          <mxGeometry width="50" height="50" relative="1" as="geometry">
            <mxPoint x="256" y="1100" as="sourcePoint" />
            <mxPoint x="306" y="1050" as="targetPoint" />
          </mxGeometry>
        </mxCell>
        <mxCell id="VLwc3c0ygytjn2desOQL-48" value="" style="endArrow=classic;html=1;rounded=0;entryX=1;entryY=0.5;entryDx=0;entryDy=0;labelBackgroundColor=none;strokeColor=#457B9D;fontColor=default;" edge="1" parent="1" target="VLwc3c0ygytjn2desOQL-38">
          <mxGeometry width="50" height="50" relative="1" as="geometry">
            <mxPoint x="590" y="1100" as="sourcePoint" />
            <mxPoint x="640" y="1050" as="targetPoint" />
          </mxGeometry>
        </mxCell>
        <mxCell id="VLwc3c0ygytjn2desOQL-49" value="&lt;font style=&quot;font-size: 18px;&quot;&gt;Not Approved&lt;/font&gt;" style="text;html=1;align=center;verticalAlign=middle;resizable=0;points=[];autosize=1;strokeColor=none;fillColor=none;labelBackgroundColor=none;fontColor=#1D3557;rounded=0;" vertex="1" parent="1">
          <mxGeometry x="150" y="865" width="130" height="40" as="geometry" />
        </mxCell>
        <mxCell id="VLwc3c0ygytjn2desOQL-50" value="" style="endArrow=classic;html=1;rounded=0;labelBackgroundColor=none;strokeColor=#457B9D;fontColor=default;" edge="1" parent="1" target="VLwc3c0ygytjn2desOQL-3">
          <mxGeometry width="50" height="50" relative="1" as="geometry">
            <mxPoint x="399.58000000000004" y="50" as="sourcePoint" />
            <mxPoint x="399.29" y="120" as="targetPoint" />
          </mxGeometry>
        </mxCell>
        <mxCell id="VLwc3c0ygytjn2desOQL-3" value="&lt;font style=&quot;font-size: 18px;&quot;&gt;Login/Signup&lt;/font&gt;" style="rounded=0;whiteSpace=wrap;html=1;labelBackgroundColor=none;fillColor=#A8DADC;strokeColor=#457B9D;fontColor=#1D3557;" vertex="1" parent="1">
          <mxGeometry x="340" y="90" width="120" height="60" as="geometry" />
        </mxCell>
        <mxCell id="VLwc3c0ygytjn2desOQL-52" value="&lt;font style=&quot;font-size: 18px;&quot;&gt;Small Content Creator&lt;/font&gt;" style="text;html=1;align=center;verticalAlign=middle;resizable=0;points=[];autosize=1;strokeColor=none;fillColor=none;labelBackgroundColor=none;fontColor=#1D3557;rounded=0;" vertex="1" parent="1">
          <mxGeometry x="50" y="300" width="200" height="40" as="geometry" />
        </mxCell>
        <mxCell id="VLwc3c0ygytjn2desOQL-53" value="" style="strokeWidth=2;html=1;shape=mxgraph.flowchart.annotation_2;align=left;labelPosition=right;pointerEvents=1;labelBackgroundColor=none;fillColor=#A8DADC;strokeColor=#457B9D;fontColor=#1D3557;rounded=0;" vertex="1" parent="1">
          <mxGeometry x="18" y="617.5" width="50" height="100" as="geometry" />
        </mxCell>
        <mxCell id="VLwc3c0ygytjn2desOQL-54" value="&lt;font style=&quot;font-size: 18px;&quot;&gt;Platform&lt;/font&gt;" style="text;html=1;align=center;verticalAlign=middle;resizable=0;points=[];autosize=1;strokeColor=none;fillColor=none;labelBackgroundColor=none;fontColor=#1D3557;rounded=0;" vertex="1" parent="1">
          <mxGeometry x="-64.75" y="647.5" width="90" height="40" as="geometry" />
        </mxCell>
        <mxCell id="VLwc3c0ygytjn2desOQL-55" value="" style="strokeWidth=2;html=1;shape=mxgraph.flowchart.annotation_2;align=left;labelPosition=right;pointerEvents=1;labelBackgroundColor=none;fillColor=#A8DADC;strokeColor=#457B9D;fontColor=#1D3557;rounded=0;" vertex="1" parent="1">
          <mxGeometry x="19" y="742" width="50" height="138" as="geometry" />
        </mxCell>
        <mxCell id="VLwc3c0ygytjn2desOQL-56" value="&lt;font style=&quot;font-size: 18px;&quot;&gt;Admin of Larger Account&lt;/font&gt;" style="text;html=1;align=center;verticalAlign=middle;resizable=0;points=[];autosize=1;strokeColor=none;fillColor=none;labelBackgroundColor=none;fontColor=#1D3557;rounded=0;" vertex="1" parent="1">
          <mxGeometry x="-201" y="800" width="220" height="40" as="geometry" />
        </mxCell>
      </root>
    </mxGraphModel>
  </diagram>
</mxfile>
